<?xml version="1.0" encoding="utf-8"?>
<!-- Generator: Adobe Illustrator 12.0.1, SVG Export Plug-In . SVG Version: 6.00 Build 51448)  -->
<!DOCTYPE svg PUBLIC "-//W3C//DTD SVG 1.1//EN" "http://www.w3.org/Graphics/SVG/1.1/DTD/svg11.dtd" [
	<!ENTITY ns_svg "http://www.w3.org/2000/svg">
	<!ENTITY ns_xlink "http://www.w3.org/1999/xlink">
]>
<svg  version="1.1" id="Layer_1" xmlns="&ns_svg;" xmlns:xlink="&ns_xlink;" width="382.2" height="382.2"
	 viewBox="0 0 382.2 382.2" style="overflow:visible;enable-background:new 0 0 382.2 382.2;" xml:space="preserve">
<path style="fill:#FFFFFF;" d="M191.1,0.1c-105.5,0-191,85.5-191,191c0,105.5,85.5,191,191,191s191-85.5,191-191
	C382.1,85.6,296.6,0.1,191.1,0.1z M191.1,310.8c-66.1,0-119.7-53.6-119.7-119.7C71.4,125,125,71.4,191.1,71.4
	c66.1,0,119.7,53.6,119.7,119.7C310.8,257.2,257.2,310.8,191.1,310.8z"/>
<path style="fill:#FEFE33;" d="M222.1,75.5c-9.9-2.6-20.3-4-31-4c-10.7,0-21.1,1.4-31,4L141.7,6.6c15.8-4.2,32.3-6.5,49.4-6.5
	c17.1,0,33.7,2.2,49.4,6.5L222.1,75.5z"/>
<path style="fill:#8601AF;" d="M160.1,306.8c9.9,2.6,20.3,4,31,4c10.7,0,21.1-1.4,31-4l18.5,68.9c-15.8,4.2-32.3,6.5-49.4,6.5
	c-17.1,0-33.7-2.2-49.4-6.5L160.1,306.8z"/>
<path style="fill:#D0EA2B;" d="M160.1,75.5c-9.9,2.7-19.6,6.6-28.9,12c-9.3,5.4-17.6,11.8-24.8,19L56,56
	c11.6-11.5,24.8-21.8,39.6-30.3c14.8-8.6,30.3-14.9,46.1-19.1L160.1,75.5z"/>
<path style="fill:#A7194B;" d="M222.1,306.8c9.9-2.7,19.6-6.6,28.9-12s17.6-11.8,24.8-19l50.4,50.4c-11.5,11.5-24.8,21.8-39.6,30.3
	c-14.8,8.5-30.3,14.9-46.1,19.1L222.1,306.8z"/>
<path style="fill:#66B032;" d="M106.5,106.5c-7.2,7.2-13.6,15.5-19,24.8c-5.4,9.3-9.3,19-12,28.9L6.6,141.7
	c4.2-15.8,10.6-31.2,19.1-46.1C34.3,80.8,44.5,67.6,56,56L106.5,106.5z"/>
<path style="fill:#FE2712;" d="M275.8,275.8c7.2-7.2,13.6-15.5,19-24.8s9.3-19,12-28.9l68.9,18.5c-4.2,15.8-10.6,31.2-19.1,46.1
	c-8.6,14.8-18.8,28-30.3,39.6L275.8,275.8z"/>
<path style="fill:#0392CE;" d="M75.5,160.1c-2.6,9.9-4,20.3-4,31c0,10.7,1.4,21.1,4,31L6.6,240.6c-4.2-15.8-6.5-32.3-6.5-49.4
	c0-17.1,2.2-33.7,6.5-49.4L75.5,160.1z"/>
<path style="fill:#FD5308;" d="M306.8,222.1c2.6-9.9,4.1-20.3,4.1-31s-1.4-21.1-4.1-31l68.9-18.5c4.2,15.8,6.5,32.3,6.5,49.4
	c0,17.1-2.2,33.7-6.5,49.4L306.8,222.1z"/>
<path style="fill:#0247FE;" d="M75.5,222.1c2.7,9.9,6.6,19.6,12,28.9s11.8,17.6,19,24.8L56,326.2c-11.5-11.5-21.8-24.8-30.3-39.6
	c-8.5-14.8-14.9-30.3-19.1-46.1L75.5,222.1z"/>
<path style="fill:#FB9902;" d="M306.8,160.1c-2.7-9.9-6.6-19.6-12-28.9s-11.8-17.6-19-24.8L326.2,56c11.5,11.5,21.8,24.8,30.3,39.6
	c8.6,14.8,14.9,30.3,19.1,46.1L306.8,160.1z"/>
<path style="fill:#3D01A4;" d="M106.5,275.8c7.2,7.2,15.5,13.6,24.8,19s19,9.3,28.9,12l-18.5,68.9c-15.8-4.2-31.2-10.6-46.1-19.1
	c-14.8-8.6-28-18.8-39.6-30.3L106.5,275.8z"/>
<path style="fill:#FABC02;" d="M275.8,106.5c-7.2-7.2-15.5-13.6-24.8-19s-19-9.3-28.9-12l18.5-68.9c15.8,4.2,31.2,10.6,46.1,19.1
	c14.8,8.6,28,18.8,39.6,30.3L275.8,106.5z"/>
<path style="fill:none;stroke:#000000;stroke-width:0.25;" d="M191.1,0.1c-105.5,0-191,85.5-191,191c0,105.5,85.5,191,191,191
	s191-85.5,191-191C382.1,85.6,296.6,0.1,191.1,0.1z M191.1,310.8c-66.1,0-119.7-53.6-119.7-119.7C71.4,125,125,71.4,191.1,71.4
	c66.1,0,119.7,53.6,119.7,119.7C310.8,257.2,257.2,310.8,191.1,310.8z"/>
</svg>
